PathFileType	4	(X/Y/Z)	C:/Users/opensim2020/Desktop/walking_exp_matlab/subject02_walking05_straight_03.trc	
DataRate	CameraRate	NumFrames	NumMarkers	Units	OrigDataRate	OrigDataStartFrame	OrigNumFrames	
100.00	100.00	8	42	mm	100.00	2245	224	
Frame#	Time	LFHD			RFHD			LBHD			RBHD			C7			T10			CLAV			STRN			RBAK			LSHO			LUPA			LELB			LFRM			LWRA			LWRB			LFIN			RSHO			RUPA			RELB			RFRM			RWRA			RWRB			RFIN			LASI			RASI			LPSI			RPSI			LTHI			LKNE			LTIB			LANK			LHEE			LTOE			RTHI			RKNE			RTIB			RANK			RHEE			RTOE			*39			*40			*41			
		X1	Y1	Z1	X2	Y2	Z2	X3	Y3	Z3	X4	Y4	Z4	X5	Y5	Z5	X6	Y6	Z6	X7	Y7	Z7	X8	Y8	Z8	X9	Y9	Z9	X10	Y10	Z10	X11	Y11	Z11	X12	Y12	Z12	X13	Y13	Z13	X14	Y14	Z14	X15	Y15	Z15	X16	Y16	Z16	X17	Y17	Z17	X18	Y18	Z18	X19	Y19	Z19	X20	Y20	Z20	X21	Y21	Z21	X22	Y22	Z22	X23	Y23	Z23	X24	Y24	Z24	X25	Y25	Z25	X26	Y26	Z26	X27	Y27	Z27	X28	Y28	Z28	X29	Y29	Z29	X30	Y30	Z30	X31	Y31	Z31	X32	Y32	Z32	X33	Y33	Z33	X34	Y34	Z34	X35	Y35	Z35	X36	Y36	Z36	X37	Y37	Z37	X38	Y38	Z38	X39	Y39	Z39	X40	Y40	Z40	X41	Y41	Z41	X42	Y42	Z42	

169	1.680	-1116.34302	546.03778	1747.99805	-974.14624	522.10809	1732.87671	-1144.83923	434.70477	1649.98572	-1007.02887	399.14572	1630.89490	-1062.40100	379.73868	1517.63831	-1056.09521	331.88412	1242.63611	-1072.61157	523.86658	1455.47876	-1055.78308	580.04987	1286.05566	-991.01019	327.06772	1346.22986	-1242.15796	449.79840	1489.20972	-1325.10132	419.20645	1290.51697	-1339.07324	403.39322	1153.49146	-1364.16699	394.63675	1024.99072	-1350.85266	435.90027	889.80713	-1378.44128	388.41290	903.00006	-1387.50244	394.41675	836.32343	-876.16315	462.21445	1494.74902	-786.52094	456.21979	1304.13586	-767.41302	489.53702	1160.12817	-755.73871	550.49310	1053.58911	-785.94525	629.87659	946.55280	-748.64520	589.86444	929.41339	-753.93079	643.51715	879.99731	-1180.18091	592.13440	1004.50958	-929.94696	561.90961	966.39496	-1124.45447	372.30661	1026.71484	-1010.16241	354.81134	1018.32104	-1244.42090	585.39893	691.05347	-1216.82458	581.23822	486.59891	-1228.65796	543.96167	294.89932	-1191.89966	555.68311	73.15474	-1148.65845	512.86707	44.56038	-1175.78931	713.36725	38.63505	-857.48987	468.00302	659.86450	-858.86188	468.49515	461.61816	-865.45599	319.38235	356.43680	-910.53552	176.65448	232.19395	-977.85596	127.99527	215.62073	-879.19440	220.18608	78.12970	-1050.59302	418.91971	1795.46887						 
170	1.690	-1117.68896	555.19000	1749.99182	-975.18158	531.40210	1734.95496	-1146.03137	444.14081	1651.62952	-1007.61346	409.23398	1632.66174	-1064.17908	389.76544	1519.65503	-1058.88135	341.77383	1244.49194	-1073.54968	533.66797	1457.32593	-1056.65515	589.63763	1287.79004	-993.71509	336.28687	1347.98254	-1243.66394	461.11194	1491.21729	-1327.50317	433.25702	1292.17126	-1342.27368	419.26038	1154.91943	-1367.22815	413.19614	1026.41589	-1353.05591	457.09601	892.01465	-1381.23596	409.67010	904.22382	-1390.68530	417.50769	837.84277	-877.32941	470.91965	1496.12146	-788.22095	464.02930	1305.42859	-769.45660	497.23480	1161.12244	-757.42444	557.20251	1054.23987	-787.29449	635.86957	946.34723	-749.98889	595.61365	929.80579	-755.45874	648.40143	879.35040	-1180.93958	601.71240	1004.89252	-929.69354	570.21063	968.97125	-1127.18579	381.84570	1028.75366	-1013.43536	363.36746	1020.34381	-1244.96130	590.74945	691.15161	-1217.73877	584.07471	486.38699	-1229.36304	545.51935	294.80173	-1191.95923	555.73669	73.11745	-1148.68762	512.77948	44.54942	-1175.72705	713.28577	38.61684	-858.51465	483.18304	662.06494	-860.37848	488.33087	464.38257	-868.62354	339.50204	359.05170	-914.56116	197.40096	234.10916	-982.30219	149.64569	215.76367	-878.80884	241.89404	81.80298	-1051.79944	427.91113	1797.05688						 
171	1.700	-1118.83154	564.36395	1751.85327	-976.26819	540.66150	1736.85461	-1147.11890	453.56644	1653.06519	-1008.90332	418.36612	1634.34961	-1065.85156	399.57651	1521.45203	-1061.55884	351.49503	1246.25378	-1074.39465	543.42523	1459.03552	-1057.51709	599.19470	1289.34814	-996.51160	345.72272	1349.46960	-1244.98792	472.33618	1493.17212	-1329.80688	447.41809	1293.88000	-1345.30261	435.23929	1156.41309	-1369.91980	432.22406	1027.57544	-1355.36072	478.85217	894.81451	-1383.69409	431.15546	905.33209	-1393.62427	440.97839	839.64819	-878.49036	479.59641	1497.44641	-790.19330	471.49286	1306.35986	-771.29901	504.75809	1162.16089	-758.90051	563.90930	1054.88013	-788.33752	641.59467	946.13232	-751.14227	601.03680	930.00104	-756.68542	653.32928	878.71661	-1181.62329	611.26050	1005.17804	-929.55316	578.32397	971.56378	-1129.87231	391.37122	1030.66040	-1016.59296	371.79941	1022.38818	-1245.56116	595.95819	690.97015	-1218.55786	586.52875	486.10416	-1229.79102	546.49371	294.77618	-1191.95203	555.74530	73.08134	-1148.72632	512.70691	44.59589	-1175.70276	713.27301	38.62452	-859.46179	498.21530	664.10876	-861.38824	507.81348	467.37134	-871.98346	359.36127	361.34427	-918.56537	218.71310	234.80550	-986.86694	172.53937	214.20984	-878.88824	264.75558	84.29514	-1053.26697	436.82751	1798.59619						 
172	1.710	-1119.81482	573.44983	1753.62305	-977.58600	549.94025	1739.12708	-1148.13037	463.00256	1654.59290	-1009.62415	428.19061	1635.52954	-1067.50403	409.41241	1523.14233	-1064.12854	361.19598	1247.88867	-1075.23743	553.17932	1460.59436	-1058.36743	608.61139	1290.69812	-999.06409	355.24777	1350.72229	-1246.36218	483.62799	1495.20728	-1331.82288	461.67941	1295.60620	-1348.29871	451.41678	1158.06189	-1372.64795	451.53952	1028.99231	-1356.98035	500.39212	897.41846	-1386.15686	452.96622	906.93359	-1396.34253	464.93652	841.75000	-879.65515	488.17337	1498.59924	-792.06976	479.03125	1307.50525	-773.00323	512.24237	1163.19592	-760.20099	570.41650	1055.40137	-789.24048	647.40363	945.85364	-752.06799	606.73865	930.42169	-757.65155	658.05725	878.19104	-1182.28894	620.63031	1005.31903	-929.61810	586.26746	974.19312	-1132.34131	400.74844	1032.47571	-1019.50665	380.33618	1024.30615	-1246.31873	601.21320	690.89880	-1219.40771	588.60333	485.95459	-1230.12402	547.14301	294.88660	-1191.90063	555.71210	73.07952	-1148.99500	512.35742	44.90829	-1175.65295	713.24011	38.63200	-860.17773	513.17401	666.31964	-862.80634	526.77399	469.98920	-875.23114	379.09720	363.11685	-922.52667	240.61592	234.50717	-991.09711	195.32916	211.75781	-878.85797	289.22977	86.06399	-1053.98413	445.96414	1799.89978						 
173	1.720	-1120.73291	582.53455	1755.27429	-978.35602	558.78119	1740.22217	-1148.97522	472.43372	1655.82043	-1010.52106	437.72345	1636.64380	-1069.04578	419.15671	1524.62488	-1066.62891	370.84378	1249.42505	-1076.00879	562.80206	1462.02759	-1059.18567	617.93463	1291.92834	-1001.70929	364.56238	1352.01709	-1247.74243	494.81512	1497.23962	-1334.28699	475.88269	1297.59314	-1351.21118	467.70081	1159.80957	-1375.00427	470.92886	1030.36243	-1358.53552	522.25165	900.36700	-1388.35876	475.04056	908.55518	-1398.81653	489.23782	844.11218	-880.80444	496.78897	1499.65845	-794.06879	486.16534	1308.14917	-774.54071	519.52441	1164.08569	-761.53229	576.94299	1056.05212	-789.87341	652.98328	945.73328	-752.98145	611.83368	930.52679	-758.36914	662.86707	877.72900	-1183.08228	629.80670	1005.32013	-929.92578	594.37036	976.84100	-1134.50696	410.00110	1034.08105	-1022.09167	388.88583	1026.12268	-1247.26587	606.23486	690.67981	-1220.22546	590.35699	485.85632	-1230.35559	547.47693	295.10583	-1191.85181	555.61743	73.12014	-1148.87219	512.36652	44.82825	-1175.69446	713.19672	38.58900	-860.61176	528.24530	668.58661	-864.02734	545.21796	472.53769	-878.35693	398.88629	364.22052	-926.16675	263.27454	232.90666	-994.99817	218.79732	208.02243	-879.48969	314.68832	86.77656	-1054.86145	454.80923	1801.14124	-3356.88086	2845.96533	1033.83362			 
174	1.730	-1121.47229	591.58673	1756.77539	-978.90985	567.91797	1741.64429	-1149.78455	481.78143	1656.88501	-1011.38818	447.08377	1637.69934	-1070.63916	428.82666	1526.00684	-1069.14941	380.43399	1250.85632	-1076.76685	572.49622	1463.28162	-1060.10327	627.31012	1292.97839	-1004.15173	373.49875	1353.23157	-1248.66174	505.87137	1499.07288	-1336.04187	489.96448	1299.50293	-1353.90454	484.00861	1161.40295	-1377.54968	490.44711	1032.21326	-1359.85498	544.22949	903.55487	-1390.47681	497.29245	910.39899	-1401.20056	513.81024	846.76685	-882.03552	505.45142	1500.61414	-795.63916	493.92926	1309.09973	-775.94812	526.61310	1164.92249	-762.32727	583.18262	1056.43115	-790.32745	658.60889	945.51569	-753.51868	617.42242	930.81677	-758.85815	667.57288	877.31549	-1184.05371	638.71631	1005.22949	-930.48413	602.52258	979.37476	-1136.39404	419.10483	1035.55725	-1024.33472	397.63702	1027.67651	-1248.28479	611.09277	690.37903	-1221.09583	591.97247	485.80145	-1230.54138	547.58289	295.39230	-1191.77136	555.55133	73.15044	-1148.51062	512.51776	44.77491	-1175.75696	713.17865	38.57060	-860.89496	542.93030	670.63483	-865.23376	563.22546	475.00867	-881.28271	418.87158	364.46106	-929.68713	286.30273	230.19221	-998.51532	243.11896	203.06551	-880.36859	341.23074	86.60495	-1055.73547	463.63202	1802.31897						 
175	1.740	-1122.13489	600.61566	1758.09485	-979.48102	577.09863	1742.77209	-1150.61951	491.15857	1658.00989	-1012.35083	456.24149	1638.51160	-1072.02881	438.51001	1527.12048	-1071.53198	389.92505	1252.11438	-1077.44470	582.05182	1464.39404	-1061.03748	636.54517	1293.86292	-1006.53790	382.62531	1354.30176	-1249.52161	516.79651	1500.86096	-1338.01050	504.03674	1301.49280	-1356.57690	500.44098	1163.22375	-1379.70581	510.11810	1033.98438	-1360.95129	566.38959	906.94067	-1392.34351	519.76776	912.27094	-1403.15308	538.59515	849.57104	-883.10541	514.03442	1501.35046	-797.41394	501.62729	1310.04419	-777.17212	533.60358	1165.65161	-763.22479	589.18890	1056.83459	-790.54541	663.99725	945.25275	-754.19757	622.49719	930.84564	-759.03424	672.46307	876.99927	-1185.24976	647.44214	1005.16779	-931.42920	610.86505	981.70789	-1138.00513	427.95734	1036.76831	-1026.09119	406.46503	1028.98438	-1249.39441	615.59338	689.91840	-1221.90723	593.66235	485.78326	-1230.68030	547.67535	295.69171	-1191.70361	555.55414	73.21349	-1148.43774	512.50140	44.95430	-1175.81409	713.03827	38.21788	-861.12842	557.40906	672.63153	-866.60583	581.24084	477.13968	-883.94580	438.85574	364.03891	-932.88672	310.06543	226.39494	-1001.87756	267.70074	197.25499	-881.29358	368.89124	85.64716	-1056.42554	472.59634	1803.06909	-3360.05347	2845.03564	1034.09851			 
176	1.750	-1122.64136	609.65826	1759.23145	-980.39325	586.07520	1743.61731	-1151.10242	500.50470	1658.63684	-1013.00494	465.56842	1639.10010	-1073.32043	448.06165	1528.08264	-1073.85107	399.31555	1253.26672	-1078.10059	591.63226	1465.33313	-1061.92126	645.71661	1294.55322	-1008.65863	391.66144	1355.19824	-1250.48730	527.65942	1502.55029	-1339.86572	517.95105	1303.39331	-1359.17078	516.92017	1165.08203	-1382.34790	529.89001	1035.96069	-1361.91003	588.70203	910.50470	-1394.33582	542.49805	914.61829	-1404.96765	563.70630	852.61505	-884.19446	522.69165	1501.94971	-798.67859	509.11053	1310.41980	-778.40063	539.78351	1165.73315	-763.86890	595.08197	1056.96887	-790.73743	669.62921	945.01343	-754.55542	627.59503	930.90735	-758.98792	677.34320	876.68939	-1186.62415	655.88287	1005.12640	-932.70905	619.57086	983.72375	-1139.21509	436.74234	1037.77100	-1027.29468	415.35458	1030.06091	-1249.77246	618.87140	689.25446	-1222.52625	595.54614	485.74673	-1230.85999	548.20459	295.98694	-1191.62354	555.62317	73.28767	-1148.08899	512.54529	45.09394	-1175.82031	713.08502	38.17175	-861.34851	572.03711	674.70868	-867.91113	598.73053	479.45038	-886.38934	459.06192	362.98938	-935.79437	334.39072	221.65698	-1004.73102	293.46332	190.22728	-882.16656	397.51971	83.99563	-1056.83704	481.49350	1803.70544	-3356.81396	2845.95801	1033.66809			 
